<svg width="20" height="20" viewBox="0 0 20 20" fill="none" xmlns="http://www.w3.org/2000/svg">
<path fill-rule="evenodd" clip-rule="evenodd" d="M10 19.75C15.3848 19.75 19.75 15.3848 19.75 10C19.75 4.61522 15.3848 0.25 10 0.25C4.61522 0.25 0.25 4.61522 0.25 10C0.25 15.3848 4.61522 19.75 10 19.75ZM13.8245 13.8245C13.5072 14.1418 12.9928 14.1418 12.6755 13.8245L10.0001 11.1491L7.32452 13.8246C7.00722 14.1419 6.49278 14.1419 6.17548 13.8246C5.85818 13.5073 5.85818 12.9929 6.17548 12.6756L8.85102 10.0001L6.17549 7.32452C5.85819 7.00722 5.85818 6.49278 6.17549 6.17548C6.49279 5.85818 7.00723 5.85818 7.32453 6.17548L10.0001 8.85101L12.6755 6.1756C12.9928 5.8583 13.5072 5.8583 13.8245 6.1756C14.1418 6.4929 14.1418 7.00735 13.8245 7.32465L11.1491 10.0001L13.8245 12.6755C14.1418 12.9928 14.1418 13.5072 13.8245 13.8245Z" fill="#242A30" fill-opacity="0.12"/>
</svg>
