<svg width="16" height="16" viewBox="0 0 16 16" fill="none" xmlns="http://www.w3.org/2000/svg">
<path d="M7.48131 1.43238C7.72079 1.55279 7.74888 1.86358 7.55407 2.04475L4.62826 4.76568L5.677 5.83064L9.50586 2.2699C10.4316 1.40904 11.7423 0.857337 12.8798 1.4304C13.3308 1.65764 13.7454 1.95592 14.105 2.31738C14.9667 3.18336 15.4637 4.33146 15.4981 5.53564C15.5325 6.73983 15.1018 7.91292 14.2908 8.824L14.2757 8.84089L8 15.0834L1.72428 8.84089L1.70925 8.824C0.898238 7.91292 0.467534 6.73983 0.50191 5.53564C0.536286 4.33144 1.03325 3.18337 1.89499 2.31738L1.89592 2.31644C2.75707 1.4541 3.93062 0.95253 5.16666 0.918535C5.9774 0.896237 6.773 1.07626 7.48131 1.43238Z" fill="white"/>
</svg>
